Coordinates
version=1
nRows=10
nColumns=34
inDegrees=yes

Units are S.I. units (second, meters, Newtons, ...)
If the header above contains a line with 'inDegrees', this indicates whether rotational values are in degrees (yes) or radians (no).

endheader
time	pelvis_tilt	pelvis_list	pelvis_rotation	pelvis_tx	pelvis_ty	pelvis_tz	hip_flexion_r	hip_adduction_r	hip_rotation_r	knee_angle_r	ankle_angle_r	subtalar_angle_r	mtp_angle_r	hip_flexion_l	hip_adduction_l	hip_rotation_l	knee_angle_l	ankle_angle_l	subtalar_angle_l	mtp_angle_l	lumbar_extension	lumbar_bending	lumbar_rotation	arm_flex_r	arm_add_r	arm_rot_r	elbow_flex_r	pro_sup_r	arm_flex_l	arm_add_l	arm_rot_l	elbow_flex_l	pro_sup_l
      2.48333330	    -12.34056371	     12.01474106	    -58.68194773	     -0.05903822	      0.53281127	     -0.37866169	    103.02941638	     -6.92067371	     14.14771194	    127.06797321	     36.16594557	      9.37367575	      0.00000000	    105.51851459	     -8.46016627	     12.63421460	    122.81973679	     32.32987652	      2.77114048	      0.00000000	    -34.27706037	      2.74149268	     -1.68559412	    101.59581108	     -8.88123953	     19.36926293	     81.15299129	    119.74439981	     98.09240555	     -7.51565567	     17.71997821	     81.42151822	    119.51475156
      2.50000000	    -12.32962991	     11.98273519	    -58.70299264	     -0.05908141	      0.53234789	     -0.37879629	    103.06898683	     -6.91244947	     14.16823912	    127.10262238	     36.17162807	      9.37591959	      0.00000000	    105.54376739	     -8.45397073	     12.64827818	    122.84952529	     32.33564873	      2.76690655	      0.00000000	    -34.32277359	      2.75909275	     -1.70102553	    101.59800564	     -8.88048183	     19.36382721	     81.14849420	    119.74404713	     98.09593392	     -7.50147350	     17.72423280	     81.40716747	    119.51320047
      2.51666670	    -12.28034194	     11.88878691	    -58.70960547	     -0.05901355	      0.53118675	     -0.37858158	    103.11106747	     -6.88711054	     14.25750278	    127.31505356	     36.17592978	      9.38626617	      0.00000000	    105.59465012	     -8.43315454	     12.72940478	    123.05740796	     32.35754542	      2.74061140	      0.00000000	    -34.34329705	      2.76438716	     -1.71091764	    101.68819771	     -8.84475485	     19.33239709	     81.16333721	    119.74211564	     98.16458936	     -7.45445504	     17.72358244	     81.37782795	    119.50671271
      2.53333330	    -12.26376955	     11.85849152	    -58.73540608	     -0.05900810	      0.53070810	     -0.37869750	    103.13477030	     -6.87846711	     14.28292178	    127.36062714	     36.17848827	      9.39146600	      0.00000000	    105.61817693	     -8.41976428	     12.74892792	    123.09389885	     32.36468912	      2.73488091	      0.00000000	    -34.37876379	      2.77974780	     -1.72069294	    101.69154945	     -8.84595667	     19.32268790	     81.16060737	    119.74141504	     98.16855398	     -7.44186126	     17.72772350	     81.36616016	    119.50478285
      2.55000000	    -12.20829568	     11.77260593	    -58.74647751	     -0.05892520	      0.52969391	     -0.37847972	    103.16285250	     -6.85007981	     14.36817485	    127.55787832	     36.17611573	      9.40908299	      0.00000000	    105.65045110	     -8.38923517	     12.83444437	    123.29302992	     32.38672376	      2.70675900	      0.00000000	    -34.39968219	      2.78467053	     -1.72541261	    101.75331847	     -8.82580014	     19.29064972	     81.17801792	    119.73944814	     98.20798181	     -7.39775197	     17.73783493	     81.35884524	    119.49923441
      2.56666670	    -12.20760996	     11.77317744	    -58.74789871	     -0.05895308	      0.52946704	     -0.37850860	    103.16280675	     -6.84967051	     14.36852088	    127.55885683	     36.17601155	      9.40937915	      0.00000000	    105.65044272	     -8.38890361	     12.83501512	    123.29326520	     32.38683406	      2.70662374	      0.00000000	    -34.40188081	      2.78605691	     -1.72616524	    101.75298908	     -8.82610047	     19.29038029	     81.17802468	    119.73943359	     98.20769379	     -7.39710101	     17.73826901	     81.35878978	    119.49920068
      2.58333330	    -12.14155301	     11.66913130	    -58.77865060	     -0.05877483	      0.52842972	     -0.37827927	    103.19464290	     -6.81770819	     14.47279302	    127.78928392	     36.16438114	      9.43666003	      0.00000000	    105.67954589	     -8.34906381	     12.93844191	    123.52349036	     32.41097960	      2.67185757	      0.00000000	    -34.43689632	      2.80308984	     -1.73270820	    101.80035456	     -8.81623971	     19.26526847	     81.21450117	    119.73877313	     98.23920265	     -7.34636395	     17.77032127	     81.39192221	    119.49504025
      2.60000000	    -12.13641379	     11.64085701	    -58.78826148	     -0.05874327	      0.52811266	     -0.37832126	    103.19962182	     -6.81542451	     14.48216085	    127.79963691	     36.16314096	      9.44011215	      0.00000000	    105.68372719	     -8.34407938	     12.94323246	    123.53088240	     32.41247452	      2.66989381	      0.00000000	    -34.43374871	      2.80278897	     -1.73610457	    101.80368345	     -8.81662995	     19.26396480	     81.21900119	    119.73883950	     98.23962155	     -7.34210448	     17.77482389	     81.39611844	    119.49474586
      2.61666670	    -12.08906138	     11.55905446	    -58.79762351	     -0.05874752	      0.52740264	     -0.37811674	    103.22424952	     -6.79730065	     14.55880038	    127.98489097	     36.14820253	      9.46171674	      0.00000000	    105.70984269	     -8.31459813	     13.02237364	    123.71490730	     32.42706173	      2.64158175	      0.00000000	    -34.46923916	      2.79681684	     -1.73023525	    101.84415729	     -8.79521372	     19.26746346	     81.26652423	    119.74054387	     98.25634064	     -7.30423285	     17.81675064	     81.44827136	    119.49402410
      2.63333330	    -12.05641732	     11.49871291	    -58.81680215	     -0.05857263	      0.52689176	     -0.37793267	    103.20426743	     -6.77732937	     14.63705729	    128.10165093	     36.11400552	      9.51363072	      0.00000000	    105.68862157	     -8.28333445	     13.09354891	    123.84622740	     32.43387996	      2.61581907	      0.00000000	    -34.47389400	      2.79387388	     -1.71304201	    101.85338828	     -8.81653108	     19.27812776	     81.31246024	    119.74369049	     98.25182583	     -7.30686118	     17.87594858	     81.51075926	    119.49253997
